<?xml version="1.0" encoding="utf-8"?>
<!-- Generator: Adobe Illustrator 23.0.0, SVG Export Plug-In . SVG Version: 6.00 Build 0)  -->
<svg version="1.1" id="Capa_1" xmlns="http://www.w3.org/2000/svg" xmlns:xlink="http://www.w3.org/1999/xlink" x="0px" y="0px"
	 viewBox="0 0 512 512" style="enable-background:new 0 0 512 512;" xml:space="preserve">
<style type="text/css">
	.st0{fill:#7120EA;}
	.st1{fill:#CBCCD0;}
</style>
<g id="Grupo_639" transform="translate(-218.897 -589.55)">
	<circle id="Elipse_6" class="st0" cx="415.2" cy="742.4" r="26.5"/>
	<path id="Trazado_288" class="st1" d="M642.9,621.5h-336c-23.2,0.1-41.9,18.8-42,42v364c0.1,23.2,18.8,41.9,42,42h336
		c23.2-0.1,41.9-18.8,42-42v-364C684.8,640.4,666.1,621.6,642.9,621.5z M628.9,1013.6h-308v-336h308L628.9,1013.6z M376.9,873.6h196
		v28h-196V873.6z M376.9,929.5h196v28h-196V929.5z"/>
	<path id="Trazado_289" class="st0" d="M377.2,810.2c-1.2,90.5,112.3,0,112.3,0S378.4,719.7,377.2,810.2z"/>
</g>
</svg>
