<?xml version="1.0" encoding="utf-8"?>
<!-- Generator: Adobe Illustrator 23.0.0, SVG Export Plug-In . SVG Version: 6.00 Build 0)  -->
<svg version="1.1" id="Capa_1" xmlns="http://www.w3.org/2000/svg" xmlns:xlink="http://www.w3.org/1999/xlink" x="0px" y="0px"
	 viewBox="0 0 512 512" style="enable-background:new 0 0 512 512;" xml:space="preserve">
<style type="text/css">
	.st0{fill:#FFFFFF;}
</style>
<g id="Grupo_655_30_" transform="translate(0 0)">
	<path id="Trazado_954_30_" class="st0" d="M327.6,29.5c18.1,18,18.1,47.3,0,65.4c0,0,0,0,0,0L196.8,225.6
		c-18.1,18.1-18.1,47.3,0,65.4c18.1,18.1,47.3,18.1,65.4,0l0,0l-32.7,32.7c-36.1,36.1-94.6,36.1-130.7,0
		c-36.1-36.1-36.1-94.6,0-130.7L262.2,29.5C280.3,11.5,309.5,11.5,327.6,29.5z"/>
	<path id="Trazado_955_30_" class="st0" d="M407.9,240.1c18.1,18,18.1,47.3,0,65.4c0,0,0,0,0,0l-65.4,65.4
		c-18.1,18.1-18.1,47.3,0,65.4c18.1,18.1,47.3,18.1,65.4,0l-32.7,32.7c-36.1,36.1-94.6,36.1-130.7,0s-36.1-94.6,0-130.7l98.1-98.1
		C360.6,222.1,389.9,222.1,407.9,240.1z"/>
</g>
</svg>
