<?xml version="1.0" encoding="utf-8"?>
<!-- Generator: Adobe Illustrator 23.0.0, SVG Export Plug-In . SVG Version: 6.00 Build 0)  -->
<svg version="1.1" id="Capa_1" xmlns="http://www.w3.org/2000/svg" xmlns:xlink="http://www.w3.org/1999/xlink" x="0px" y="0px"
	 viewBox="0 0 512 512" style="enable-background:new 0 0 512 512;" xml:space="preserve">
<style type="text/css">
	.st0{fill:#CBCCD0;}
	.st1{fill:#7120EA;}
</style>
<g id="Grupo_638" transform="translate(-144.513 -590.437)">
	<path id="Trazado_290" class="st0" d="M285.4,731.2L264,712.8c-6.6,7.7-12.6,15.8-18,24.4l24,15
		C274.6,744.8,279.8,737.8,285.4,731.2z"/>
	<path id="Trazado_291" class="st0" d="M324.8,697l-15.2-23.8c-8.5,5.4-16.7,11.5-24.3,18.1l18.5,21.3
		C310.4,706.9,317.4,701.7,324.8,697z"/>
	<path id="Trazado_293" class="st0" d="M261.2,807.8l-16.8,16.8c1.6-14,4.9-27.7,9.9-40.8c1.1-2.9,2.3-5.8,3.5-8.6l-25.9-11.3
		c-1.4,3.3-2.8,6.6-4,9.9c-6.5,17.1-10.6,34.9-12.3,53.1l-19.1-19.1l-20,20l52.3,52.3l52.3-52.3L261.2,807.8z"/>
	<path id="Trazado_292" class="st0" d="M602.4,754.3c-49.1-97.6-166.2-139.6-266.2-95.3l11.4,25.8c89.1-39.6,193.4,0.4,233,89.5
		c39.6,89.1-0.4,193.4-89.5,233c-86.1,38.3-187.2,2.2-229.5-82.1l-25.2,12.6c50.3,101.2,173.1,142.6,274.3,92.3
		s142.6-173.1,92.3-274.3C602.9,755.3,602.6,754.9,602.4,754.3L602.4,754.3z"/>
	<path id="Trazado_294" class="st1" d="M398.2,719v141.1h84.7v-28.2h-56.5V719H398.2z"/>
	<rect id="Rectángulo_1520" x="511.1" y="831.9" class="st1" width="28.2" height="28.2"/>
	<path id="Trazado_956" class="st1" d="M398.2,944.8h28.2V973h-28.2V944.8z"/>
</g>
</svg>
