<?xml version="1.0" encoding="utf-8"?>
<!-- Generator: Adobe Illustrator 23.0.0, SVG Export Plug-In . SVG Version: 6.00 Build 0)  -->
<svg version="1.1" id="Capa_1" xmlns="http://www.w3.org/2000/svg" xmlns:xlink="http://www.w3.org/1999/xlink" x="0px" y="0px"
	 viewBox="0 0 512 512" style="enable-background:new 0 0 512 512;" xml:space="preserve">
<style type="text/css">
	.st0{fill:#CBCCD0;}
	.st1{fill:#7120EA;}
</style>
<g id="Grupo_643" transform="translate(-76.096 -590.437)">
	<g id="Layer_20" transform="translate(79.076 593.103)">
		<path id="Shape" class="st0" d="M429.1,224v170.6c0,23.9-19.3,43.4-43.3,43.4c-0.2,0-0.4,0-0.6,0h-75.8c-1.6,0.1-3-1.1-3.1-2.7
			c0-0.1,0-0.2,0-0.4v-72.6c0-14-5.7-27.4-15.6-37.2c-9.5-9.1-21.9-14.6-35-15.5c-30.6-0.2-55.5,24.4-55.7,54.9c0,0.3,0,0.6,0,0.9
			v69.4c0.1,1.6-1.1,3-2.8,3.1c-0.1,0-0.2,0-0.4,0h-75.6c-24,0-43.6-19.3-43.8-43.4V224c0-2.5,1.2-4.8,3.1-6.2l165.2-103.6
			c4.8-3.1,10.9-3.1,15.6,0L426,217.8C428,219.3,429.1,221.6,429.1,224z"/>
	</g>
	<g id="Layer_19" transform="translate(76.096 590.437)">
		<path id="Shape-2" class="st1" d="M451.5,248.4c-5.5,0-10.9-1.5-15.6-4.4L256.2,131.1L76.6,244.1c-13.5,8.5-31.3,4.6-40-8.7
			c-8.5-13.4-4.6-31.2,8.8-39.7c0,0,0,0,0,0L232.4,77.7c14.4-8.7,32.5-8.7,46.9,0l187.1,117.9c13.3,8.1,17.5,25.5,9.4,38.8
			c-0.2,0.3-0.4,0.6-0.6,0.9C470.2,243.7,461.2,248.6,451.5,248.4z"/>
	</g>
</g>
</svg>
