<?xml version="1.0" encoding="utf-8"?>
<!-- Generator: Adobe Illustrator 23.0.0, SVG Export Plug-In . SVG Version: 6.00 Build 0)  -->
<svg version="1.1" id="Capa_1" xmlns="http://www.w3.org/2000/svg" xmlns:xlink="http://www.w3.org/1999/xlink" x="0px" y="0px"
	 viewBox="0 0 512 512" style="enable-background:new 0 0 512 512;" xml:space="preserve">
<style type="text/css">
	.st0{fill:#CBCCD0;}
	.st1{fill:#7120EA;}
</style>
<g id="Grupo_641" transform="translate(-289.729 -588.333)">
	<path class="st0" d="M761.2,902.5c-14.5-11.5-28.3-22.4-42.8-33.9c-2.3-1.5-3.6-4.3-3.3-7c0.7-12.8,0.7-25.6,0-38.4
		c-0.4-3.3,1.1-6.6,4-8.4c15.1-9.6,29.6-19.8,44.1-30.1c6.6-5.1,8.6-10.2,4.6-16.6c-15.8-26.2-31.6-52.4-47.4-78
		c-0.3-0.6-0.6-1.1-1-1.6c-3.7-5.3-10.9-6.5-16.1-2.8c-15.8,7.7-32.2,15.3-48,22.4c-2.4,0.8-5,0.5-7.2-0.6
		c-11.8-6.4-23-13.4-34.2-19.2c-4-2.5-5.9-4.5-5.9-8.9c-1.3-16.6-2.6-33.9-4.6-51.2c0-0.4,0-0.8,0-1.1c-0.5-5.9-5.8-10.3-11.7-9.7
		h-90.2c-0.3,0-0.6-0.1-0.9-0.1c-5.9-0.2-10.8,4.4-11,10.3c-0.8,2.5-1.2,5.1-1.3,7.7c-2,16-4,31.3-5.9,46.7c-0.2,2.6-1.7,5-4,6.4
		c-11.1,7-22.3,12.8-33.5,19.8c-2.9,2.6-7.1,3.1-10.5,1.3c-15.1-6.4-30.3-13.4-45.4-19.8c-2.9-1.5-6-2.6-9.2-3.2
		c-3.6,2.2-6.6,5.3-8.5,9c-15.8,24.9-31,49.8-46.1,75.4c-5.3,8.3-3.9,12.8,4,18.5c14.5,10.2,29,19.8,43.4,30.1
		c2.5,1.7,3.8,4.7,3.3,7.7c-0.7,12.8-0.7,25.6,0,38.4c1.1,3-0.4,6.4-3.3,7.7c-14.5,9.6-28.3,19.2-42.8,29.4
		c-8.6,5.8-9.9,10.8-4.6,19.2c14.5,24.3,29.6,49.3,44.1,73.6c0.3,0.8,0.8,1.6,1.2,2.3c4,5.9,12,7.5,17.9,3.5
		c15.8-7.1,30.9-14.1,46.7-20.5c2.4-0.8,5-0.5,7.2,0.6c10.5,5.8,20.4,12.8,30.9,17.3c5.9,2.5,9.6,8.3,9.2,14.7l4,46
		c-0.1,0.8,0,1.7,0.1,2.5c1,6.3,6.8,10.6,13.1,9.6H588c0.7,0.1,1.3,0.1,2,0.1c6.5-0.3,11.5-5.8,11.2-12.2
		c1.9-17.3,3.3-35.2,5.3-53.1c0.7-1.3,2-3.8,3.4-4.5c11.8-6.4,23.7-12.8,34.9-19.8c2.9-2.1,6.7-2.4,9.9-0.6
		c15.8,7,30.9,13.4,47.4,19.8c7.9,3.8,13.1,2.6,17.1-3.8c15.1-25.6,31-51.2,46.1-76.8c0.4-0.5,0.8-1.1,1.1-1.7
		C769.3,912.9,767,905.6,761.2,902.5z M545.3,905c-17.4,0.2-34.2-6.4-46.7-18.5c-12-11.8-18.6-28-18.4-44.8
		c0.2-16.9,6.8-33.1,18.4-45.4c12-11.6,28.1-18,44.8-17.9h0.6c17.6-0.3,34.7,6.3,47.4,18.5c12.3,11.6,19.2,27.8,19.1,44.8v0.5
		c-0.6,34.9-29.2,62.8-64,62.8C546.1,905.1,545.7,905.1,545.3,905z"/>
	<path class="st1" d="M623.7,765.6c-21.3-20.3-49.6-31.5-79-31.3c-28.9-0.5-56.9,10.6-77.7,30.7c-21,20-32.9,47.7-32.9,76.7v0.1
		c-0.3,29,11.4,56.7,32.3,76.8c21.2,20.4,49.5,31.7,79,31.3l0,0c0.7,0,1.3,0,2,0c59.7,0.3,108.3-47.8,108.6-107.5
		C656.2,813.4,644.5,785.7,623.7,765.6z M610.5,842.2c-0.6,34.9-29.2,62.8-64,62.8c-0.4,0-0.8,0-1.2,0c-17.4,0.2-34.2-6.4-46.7-18.5
		c-12-11.8-18.6-28-18.4-44.8c0.2-16.9,6.8-33.1,18.4-45.4c12-11.6,28.1-18,44.8-17.9h0.6c17.6-0.3,34.7,6.3,47.4,18.5
		c12.3,11.6,19.2,27.8,19.1,44.8V842.2z"/>
</g>
</svg>
